# xmcd
#
# Track frame offsets:
#	150
#	11081
#	26014
#	38912
#	50333
#	63981
#	71880
#	81587
#	89477
#	98231
#	111279
#	124727
#	135506
#	146110
#	157384
#	168575
#	177554
#	187392
#	200127
#	213058
#
# Disc length: 3016 seconds
#
# Revision: 0
# Processed by: cddbd v1.5.1PL2 Copyright (c) Steve Scherf et al.
# Submitted via: dBpowerAMP V4.0
#
DISCID=3d0bc614
DTITLE=Rebild Spillemændene - Traditioner mødes
DYEAR=1961
DGENRE=Folklore
TTITLE0=Polka nr. 40
TTITLE1=Vals nr. 93
TTITLE2=Rheinlænder
TTITLE3=Lisbeth Hopsa
TTITLE4=Polka i D-dur
TTITLE5=Ottemandsdans
TTITLE6=Vals 1869
TTITLE7=Rundt Hopsa
TTITLE8=Polka nr. 12
TTITLE9=Mazurka nr. 41
TTITLE10=Aften ved stranden
TTITLE11=Gl. Buus Sekstur
TTITLE12=Hopsa nr. 27
TTITLE13=Flyvgal
TTITLE14=Tre Mands Reel
TTITLE15=To Ting
TTITLE16=Bryllupsmarch
TTITLE17=Mazurka nr. 49
TTITLE18=Anna Polka
TTITLE19=Min Piges Vals
EXTD=
EXTT0=
EXTT1=
EXTT2=
EXTT3=
EXTT4=
EXTT5=
EXTT6=
EXTT7=
EXTT8=
EXTT9=
EXTT10=
EXTT11=
EXTT12=
EXTT13=
EXTT14=
EXTT15=
EXTT16=
EXTT17=
EXTT18=
EXTT19=
PLAYORDER=
